<svg width="25" height="25" viewBox="0 0 25 25" fill="none" xmlns="http://www.w3.org/2000/svg">
<path d="M14.3016 3.65527L16.135 7.32194C16.385 7.83236 17.0516 8.32194 17.6141 8.41569L20.937 8.96777C23.062 9.32194 23.562 10.8636 22.0308 12.3844L19.4475 14.9678C19.01 15.4053 18.7704 16.249 18.9058 16.8532L19.6454 20.0511C20.2287 22.5824 18.885 23.5615 16.6454 22.2386L13.5308 20.3949C12.9683 20.0615 12.0412 20.0615 11.4683 20.3949L8.35371 22.2386C6.12454 23.5615 4.77037 22.5719 5.35371 20.0511L6.09329 16.8532C6.22871 16.249 5.98912 15.4053 5.55162 14.9678L2.96829 12.3844C1.44746 10.8636 1.93704 9.32194 4.06204 8.96777L7.38496 8.41569C7.93704 8.32194 8.60371 7.83236 8.85371 7.32194L10.687 3.65527C11.687 1.66569 13.312 1.66569 14.3016 3.65527Z" fill="#FFDC08"/>
</svg>
